#!OML:ASF X:\für Bonn\!DataBase\2005_08_11_Bastian_Final\c3d\Bastian.ASF
:FULLY-SPECIFIED
:DEGREES
31
root 0.069803 14.9039 6.14834 170.492 -11.1844 -178.799
lowerback 20.5848 -2.74788 0.732785
upperback 6.04948 -4.46244 0.00238824
thorax -4.96333 -2.6117 0.707901
lowerneck -11.2826 -6.15436 -5.00632
upperneck -5.83036 -8.3633 10.0221
head 0.783766 -4.35351 3.77455
rclavicle -4.47266e-016 -5.96354e-015
rhumerus 70.3209 19.7977 3.2726
rradius 39.0392
rwrist -50.4628
rhand -44.0432 -7.58886
rfingers 7.12502
rthumb -16.8628 -36.8767
lclavicle -4.47266e-016 -5.96354e-015
lhumerus 70.1612 -20.3211 -12.0755
lradius 31.8345
lwrist 4.09631
lhand -43.0596 14.0494
lfingers 7.12502
lthumb -15.9158 43.4154
rfemur -21.0214 -17.6555 21.9932
rtibia 76.1955
rfoot -38.4852 -4.12129
rtoes 1.87224
lfemur -24.0383 3.04556 -16.7941
ltibia 76.3082
lfoot -30.875 -15.8693
ltoes -1.93821
32
root 0.0681332 14.7191 6.15904 170.39 -11.0786 -178.68
lowerback 20.8592 -2.74 0.870498
upperback 6.06199 -4.43383 0.0362006
thorax -5.09778 -2.60315 0.677317
lowerneck -11.1743 -6.12717 -5.04959
upperneck -6.0929 -8.33139 10.1017
head 0.682407 -4.35328 3.8205
rclavicle 1.07592e-014 9.93923e-016
rhumerus 70.3112 19.4035 3.28768
rradius 39.1446
rwrist -50.6774
rhand -44.1132 -7.52879
rfingers 7.12502
rthumb -16.9302 -36.8109
lclavicle 1.07592e-014 9.93923e-016
lhumerus 70.0037 -19.8879 -12.082
lradius 31.8349
lwrist 3.99188
lhand -42.997 14.0866
lfingers 7.12502
lthumb -15.8555 43.4575
rfemur -22.1209 -18.0297 22.0556
rtibia 78.533
rfoot -39.1554 -3.87789
rtoes 2.11032
lfemur -25.2097 3.35241 -16.6011
ltibia 78.7719
lfoot -32.0028 -16.2712
ltoes -0.730899
33
root 0.0663479 14.5314 6.17198 170.283 -10.994 -178.6
lowerback 21.1923 -2.7313 0.970643
upperback 6.05644 -4.40936 0.0647083
thorax -5.27956 -2.59576 0.667745
lowerneck -11.0429 -6.10663 -5.13598
upperneck -6.36239 -8.30298 10.201
head 0.578329 -4.35427 3.88242
rclavicle -1.59028e-015 7.55382e-015
rhumerus 70.3136 19.0095 3.38115
rradius 39.2778
rwrist -51.0855
rhand -44.1768 -7.39052
rfingers 7.12502
rthumb -16.9913 -36.6674
lclavicle -1.59028e-015 7.55382e-015
lhumerus 69.8847 -19.4865 -12.1475
lradius 31.8415
lwrist 3.97802
lhand -42.9469 14.1568
lfingers 7.12502
lthumb -15.8072 43.5314
rfemur -23.2386 -18.4576 22.0659
rtibia 80.9103
rfoot -39.7458 -3.67903
rtoes 2.24499
lfemur -26.3783 3.59207 -16.4668
ltibia 81.2418
lfoot -32.9956 -16.6109
ltoes 0.155961
34
root 0.064636 14.336 6.1866 170.177 -10.9108 -178.521
lowerback 21.5496 -2.71968 1.0746
upperback 6.04866 -4.37991 0.0879607
thorax -5.47655 -2.58615 0.650641
lowerneck -10.9406 -6.07815 -5.16854
upperneck -6.62255 -8.27114 10.2781
head 0.478089 -4.3545 3.92588
rclavicle 6.13748e-015 5.36719e-015
rhumerus 70.2812 18.6222 3.3826
rradius 39.4138
rwrist -51.5137
rhand -44.2474 -7.21886
rfingers 7.12502
rthumb -17.0594 -36.4898
lclavicle 6.13748e-015 5.36719e-015
lhumerus 69.7471 -19.082 -12.113
lradius 31.8496
lwrist 3.92019
lhand -42.9463 14.2122
lfingers 7.12502
lthumb -15.8067 43.5869
rfemur -24.3933 -18.8862 22.0793
rtibia 83.3388
rfoot -40.3039 -3.49173
rtoes 2.2911
lfemur -27.5909 3.81366 -16.3248
ltibia 83.7563
lfoot -33.7968 -16.9654
ltoes 0.955934
35
root 0.0636185 14.1354 6.20107 170.061 -10.8256 -178.441
lowerback 21.9341 -2.70495 1.17125
upperback 6.04472 -4.34857 0.114332
thorax -5.68216 -2.57652 0.641859
lowerneck -10.8693 -6.06161 -5.22842
upperneck -6.87766 -8.25363 10.3802
head 0.38866 -4.36137 3.98165
rclavicle 1.25483e-014 -1.90833e-014
rhumerus 70.2197 18.2231 3.32643
rradius 39.5596
rwrist -51.9882
rhand -44.2691 -6.95253
rfingers 7.12502
rthumb -17.0802 -36.2217
lclavicle 1.25483e-014 -1.90833e-014
lhumerus 69.6231 -18.7018 -12.1911
lradius 31.905
lwrist 4.00199
lhand -43.0014 14.3072
lfingers 7.12502
lthumb -15.8597 43.6777
rfemur -25.5758 -19.34 22.0953
rtibia 85.8249
rfoot -40.8309 -3.29671
rtoes 2.31964
lfemur -28.8041 4.02339 -16.1557
ltibia 86.277
lfoot -34.4881 -17.4275
ltoes 1.63508
36
root 0.062846 13.9293 6.21547 169.943 -10.7657 -178.36
lowerback 22.3318 -2.70401 1.25644
upperback 6.03515 -4.33604 0.141793
thorax -5.89943 -2.57577 0.646581
lowerneck -10.8096 -6.02869 -5.24733
upperneck -7.1099 -8.2183 10.4489
head 0.303399 -4.35903 4.01842
rclavicle 3.48619e-014 -1.61016e-014
rhumerus 70.1803 17.8529 3.15751
rradius 39.6295
rwrist -52.2912
rhand -44.2353 -6.70677
rfingers 7.12502
rthumb -17.0477 -35.9788
lclavicle 3.48619e-014 -1.61016e-014
lhumerus 69.4296 -18.3542 -12.0415
lradius 31.917
lwrist 3.91322
lhand -43.0864 14.3606
lfingers 7.12502
lthumb -15.9415 43.7246
rfemur -26.7808 -19.8291 22.1044
rtibia 88.3637
rfoot -41.3334 -3.12728
rtoes 2.299
lfemur -30.0458 4.1844 -15.9816
ltibia 88.829
lfoot -35.0841 -17.8744
ltoes 2.16125
37
root 0.0621241 13.7202 6.22754 169.792 -10.7169 -178.277
lowerback 22.7594 -2.70624 1.34977
upperback 6.02942 -4.32685 0.163453
thorax -6.12838 -2.57752 0.64314
lowerneck -10.802 -6.0036 -5.29506
upperneck -7.28599 -8.18983 10.539
head 0.248693 -4.35623 4.06514
rclavicle 4.05024e-015 3.37934e-015
rhumerus 70.104 17.5221 2.9065
rradius 39.7055
rwrist -52.5549
rhand -44.1937 -6.43398
rfingers 7.12502
rthumb -17.0077 -35.7094
lclavicle 4.05024e-015 3.37934e-015
lhumerus 69.256 -18.0444 -11.8777
lradius 31.9336
lwrist 3.88288
lhand -43.2051 14.4138
lfingers 7.12502
lthumb -16.0559 43.7686
rfemur -27.9424 -20.3185 22.0871
rtibia 90.9352
rfoot -41.8402 -2.85563
rtoes 2.44043
lfemur -31.2364 4.34809 -15.7895
ltibia 91.3749
lfoot -35.6406 -18.3668
ltoes 2.68636
